<svg width="81" height="25" viewBox="0 0 81 25" fill="none" xmlns="http://www.w3.org/2000/svg">
<g clip-path="url(#clip0_1829_1468)">
<path d="M60.0993 24.6672H41.7255V0.985352H60.0993V24.6672ZM41.7258 14.0512V19.3592H49.0752V14.0512H41.7258ZM49.1055 14.0512H54.4134V8.74315H49.1055V14.0512Z" fill="#333333"/>
<path d="M39.2757 24.6672H20.9019V0.985352H39.2757V24.6672ZM26.2098 6.29335V19.3592H33.5592V6.29335H26.2098Z" fill="#333333"/>
<path d="M80.9232 24.6672H62.9574V0.985352H80.9232V24.6672ZM68.2659 6.29335V19.3592H75.6153V6.29335H68.2659Z" fill="#333333"/>
<path d="M18.0436 24.6672H0.0779266V0.985352H18.0436V24.6672ZM5.38623 14.0512V19.3592H12.7356V14.0512H5.38623ZM5.38623 11.6014H12.7356V6.29335H5.38623V11.6014Z" fill="#333333"/>
</g>
<defs>
<clipPath id="clip0_1829_1468">
<rect width="81" height="24" fill="#333333" transform="translate(0 0.878906)"/>
</clipPath>
</defs>
</svg>
